<svg width="1920" height="934" viewBox="0 0 1920 934" fill="none" xmlns="http://www.w3.org/2000/svg">
<path d="M0 760L1920 744V920C960 899 960 760 0 760Z" fill="#F26228"/>
<rect width="1920" height="760" fill="#F26228"/>
<path fill-rule="evenodd" clip-rule="evenodd" d="M1086.74 143.037L1136.95 170.07L1085.05 200.035L1086.74 143.037ZM1095.58 182.41L1116.42 170.375L1096.26 159.518L1095.58 182.41Z" fill="#F96F38"/>
<path fill-rule="evenodd" clip-rule="evenodd" d="M544 667.053L555 648L574.053 659L563.053 678.053L544 667.053ZM550.83 665.222L561.222 671.222L567.222 660.83L556.83 654.83L550.83 665.222Z" fill="#F96F38"/>
<path fill-rule="evenodd" clip-rule="evenodd" d="M1520 524.8C1491.02 524.8 1466.73 549.072 1466.73 580C1466.73 610.928 1491.02 635.2 1520 635.2C1548.98 635.2 1573.27 610.928 1573.27 580C1573.27 549.072 1548.98 524.8 1520 524.8ZM1430 580C1430 529.632 1469.86 488 1520 488C1570.14 488 1610 529.632 1610 580C1610 630.368 1570.14 672 1520 672C1469.86 672 1430 630.368 1430 580Z" fill="#F96F38"/>
<path fill-rule="evenodd" clip-rule="evenodd" d="M1508.23 289.207L1485.45 266.422L1456.46 295.404L1468.86 307.798L1485.45 291.209L1508.23 313.995L1531.02 291.209L1547.61 307.798L1560 295.404L1531.02 266.422L1508.23 289.207ZM1508.23 338.284L1485.45 315.498L1456.46 344.481L1468.86 356.874L1485.45 340.286L1508.23 363.071L1531.02 340.286L1547.61 356.874L1560 344.481L1531.02 315.498L1508.23 338.284Z" fill="#F96F38"/>
<path fill-rule="evenodd" clip-rule="evenodd" d="M1418.07 85L1507.9 109.07L1483.83 198.901L1394 174.831L1418.07 85ZM1433.02 110.887L1419.89 159.885L1468.89 173.015L1482.01 124.016L1433.02 110.887Z" fill="#F96F38"/>
<path fill-rule="evenodd" clip-rule="evenodd" d="M857 231C848.949 231 842.204 237.596 842.204 246C842.204 254.404 848.949 261 857 261C865.051 261 871.796 254.404 871.796 246C871.796 237.596 865.051 231 857 231ZM832 246C832 232.313 843.072 221 857 221C870.928 221 882 232.313 882 246C882 259.687 870.928 271 857 271C843.072 271 832 259.687 832 246Z" fill="#F96F38"/>
<path fill-rule="evenodd" clip-rule="evenodd" d="M1493.5 716L1557 819H1430L1493.5 716ZM1468 797.769H1519L1493.5 756.401L1468 797.769Z" fill="#F96F38"/>
<path fill-rule="evenodd" clip-rule="evenodd" d="M964.691 663.922L955.499 648L935.247 659.692L940.247 668.353L951.839 661.66L961.031 677.582L976.953 668.39L983.645 679.981L992.305 674.981L980.613 654.729L964.691 663.922ZM957.444 690.968L948.252 675.046L928 686.738L933 695.399L944.592 688.706L953.784 704.628L969.706 695.435L976.398 707.027L985.058 702.027L973.366 681.775L957.444 690.968Z" fill="#F96F38"/>
<path fill-rule="evenodd" clip-rule="evenodd" d="M1619.5 29.6C1604.85 29.6 1592.57 41.8679 1592.57 57.5C1592.57 73.1321 1604.85 85.4 1619.5 85.4C1634.15 85.4 1646.43 73.1321 1646.43 57.5C1646.43 41.8679 1634.15 29.6 1619.5 29.6ZM1574 57.5C1574 32.0421 1594.15 11 1619.5 11C1644.85 11 1665 32.0421 1665 57.5C1665 82.9579 1644.85 104 1619.5 104C1594.15 104 1574 82.9579 1574 57.5Z" fill="#F96F38"/>
<path fill-rule="evenodd" clip-rule="evenodd" d="M1815.26 160.011L1870.15 343.469L1676 291.446L1815.26 160.011ZM1742.78 274.557L1820.76 295.451L1798.72 221.769L1742.78 274.557Z" fill="#F96F38"/>
<path fill-rule="evenodd" clip-rule="evenodd" d="M716 42.486L799.919 20L822.405 103.919L738.486 126.405L716 42.486ZM740.183 56.448L752.448 102.222L798.222 89.9569L785.957 44.1829L740.183 56.448Z" fill="#F96F38"/>
<path fill-rule="evenodd" clip-rule="evenodd" d="M739.699 441.756L681.185 426.077L661.242 500.505L693.07 509.033L704.484 466.433L762.998 482.111L778.677 423.598L821.277 435.012L829.805 403.185L755.378 383.242L739.699 441.756ZM785.829 521.656L727.315 505.977L707.372 580.404L739.2 588.932L750.614 546.332L809.128 562.011L824.807 503.497L867.407 514.912L875.935 483.085L801.508 463.142L785.829 521.656Z" fill="#F96F38"/>
<path fill-rule="evenodd" clip-rule="evenodd" d="M1004 800.936L1136.94 668L1269.87 800.936L1136.94 933.872L1004 800.936ZM1064.43 800.936L1136.94 873.447L1209.45 800.936L1136.94 728.426L1064.43 800.936Z" fill="#F96F38"/>
<path fill-rule="evenodd" clip-rule="evenodd" d="M607 707C598.949 707 592.204 713.596 592.204 722C592.204 730.404 598.949 737 607 737C615.051 737 621.796 730.404 621.796 722C621.796 713.596 615.051 707 607 707ZM582 722C582 708.313 593.072 697 607 697C620.928 697 632 708.313 632 722C632 735.687 620.928 747 607 747C593.072 747 582 735.687 582 722Z" fill="#F96F38"/>
<path fill-rule="evenodd" clip-rule="evenodd" d="M1602.39 374.885L1624.76 395.972L1593.55 404.336L1602.39 374.885ZM1601.49 396.625L1614.03 393.266L1605.04 384.797L1601.49 396.625Z" fill="#F96F38"/>
<path fill-rule="evenodd" clip-rule="evenodd" d="M291.459 202.359L369.736 244.504L288.819 291.222L291.459 202.359ZM305.233 263.743L337.732 244.98L306.293 228.053L305.233 263.743Z" fill="#F96F38"/>
<path fill-rule="evenodd" clip-rule="evenodd" d="M1182 793.2C1177.81 793.2 1174.31 796.63 1174.31 801C1174.31 805.37 1177.81 808.8 1182 808.8C1186.19 808.8 1189.69 805.37 1189.69 801C1189.69 796.63 1186.19 793.2 1182 793.2ZM1169 801C1169 793.883 1174.76 788 1182 788C1189.24 788 1195 793.883 1195 801C1195 808.117 1189.24 814 1182 814C1174.76 814 1169 808.117 1169 801Z" fill="#F96F38"/>
</svg>
